<?xml version="1.0" encoding="utf-8"?>
<!-- Generator: Adobe Illustrator 19.0.0, SVG Export Plug-In . SVG Version: 6.00 Build 0)  -->
<svg version="1.1" id="Layer_1" xmlns="http://www.w3.org/2000/svg" xmlns:xlink="http://www.w3.org/1999/xlink" x="0px" y="0px"
	 width="612px" height="185.4px" viewBox="0 0 612 185.4" style="enable-background:new 0 0 612 185.4;" xml:space="preserve">
<style type="text/css">
	.st0{fill:#355186;}
</style>
<g id="XMLID_330_">
	<path id="XMLID_340_" class="st0" d="M148.3,62.2c-6.4-4.9-15.4-7.4-26.7-7.4c-11.6,0-20.5,2.6-27,7.4c-6.4,4.9-9.8,12.3-9.8,21.3
		s3.3,16.4,9.8,21.6c8.7,6.7,19.5,7.4,29.3,7.4L137,131h12.3l-14.1-20c5.9-1.5,11-4.4,14.9-8c5.1-4.9,8-11.6,8-19.5
		C158.1,74.5,154.7,67.1,148.3,62.2z M121.6,103.5c-12.3,0-26.7-3.5-26.7-20c0-16.2,14.4-19.7,26.7-19.7c12.1,0,26.5,3.5,26.5,19.7
		C148,100,133.7,103.5,121.6,103.5z"/>
	<path id="XMLID_345_" class="st0" d="M364.8,72.2c-3.8-2.6-9.5-4.3-16.2-4.3c-16.2,0-25.9,8.5-25.9,22.3c0,14.1,9.7,22.8,25.9,22.4
		c6.7-0.1,12.7-1.6,16.2-4.9V131h10V68.4h-9.5L364.8,72.2z M348.7,104c-16.2,0-15.9-10.4-15.9-13.8c0-3.4,0-13.5,15.9-13.5
		c16.2,0,16.2,10.1,16.2,13.5C364.8,93.6,364.9,104,348.7,104z"/>
	<polygon id="XMLID_373_" class="st0" points="215.9,78 247.6,78 215.9,102.4 215.9,112 263.9,112 263.9,102.4 232.4,102.4 
		263.9,78 263.9,68.4 215.9,68.4 	"/>
	<circle id="XMLID_383_" class="st0" cx="385.4" cy="107.3" r="5.3"/>
	<path id="XMLID_405_" class="st0" d="M293.2,68.1c-7.8,0-18,1.8-24.4,5.1l3.9,7.4c6.7-2.3,13.5-3.1,19.5-3.1c4.7,0,15.7,0,15.7,6.5
		h-24c-9,0.5-16.7,5.1-16.2,14.6c0.8,12.1,12.4,13.9,22.9,13.9c4.9-0.3,12.1-1.5,17.2-4.9l0.5,4.3h9.8V82.9
		C318.1,70.8,305.3,68.1,293.2,68.1z M307.9,95.4c0,5.7-12.7,7.8-17.1,7.8c-7.9,0-12.3-1.5-12.3-5.4c0-4.1,3.5-4.6,6-4.6h23.4V95.4z
		"/>
	<path id="XMLID_409_" class="st0" d="M518,68.4l-0.5,3.8c-3.8-2.6-9.5-4.3-16.2-4.3c-16.2,0-25.9,8.5-25.9,22.3
		c0,14.1,9.7,22.8,25.9,22.4c6.7-0.1,12.7-1.6,16.2-4.9v4.3c0,9.5-11.2,10.5-15.9,10.5c-6,0-12.8-0.8-19.5-3.1l-3.9,7.4
		c6.4,3.3,13.9,5.1,23.4,5.1c9.2,0,25.9-3.2,25.9-19.8V68.4H518z M501.3,104c-16.2,0-15.9-10.4-15.9-13.8c0-3.4,0-13.5,15.9-13.5
		c16.2,0,16.2,10.1,16.2,13.5C517.5,93.6,517.5,104,501.3,104z"/>
	<path id="XMLID_412_" class="st0" d="M417.7,67.7c-16.4,0-26.1,8.4-26.1,22.4s9.8,22.4,26.1,22.4c16.4,0,26.1-8.4,26.1-22.4
		S434.1,67.7,417.7,67.7z M417.7,103.8c-16.1,0-16.1-10.2-16.1-13.6c0-3.4,0-13.6,16.1-13.6c16.1,0,16.1,10.2,16.1,13.6
		C433.8,93.5,433.8,103.8,417.7,103.8z"/>
	<path id="XMLID_413_" class="st0" d="M458,72l-0.5-3.6H448l0.1,43.7h9.9v-4.3V82.9c1.3-4.7,10.8-5.4,16-5.4c0.4,0,0.9,0,1.3,0v-9.5
		c-0.4,0-0.9,0-1.3,0C468.9,68.1,462.6,69.1,458,72z"/>
	<path id="XMLID_421_" class="st0" d="M186.1,68.1c-7.8,0-18,1.8-24.4,5.1l3.9,7.4c6.7-2.3,13.5-3.1,19.5-3.1c4.7,0,15.7,0,15.7,6.5
		h-24c-9,0.5-16.7,5.1-16.2,14.6c0.8,12.1,12.4,13.9,22.9,13.9c4.9-0.3,12.1-1.5,17.2-4.9l0.5,4.3h9.8V82.9
		C211,70.8,198.2,68.1,186.1,68.1z M200.8,95.4c0,5.7-12.7,7.8-17.1,7.8c-7.9,0-12.3-1.5-12.3-5.4c0-4.1,3.5-4.6,6-4.6h23.4V95.4z"
		/>
</g>
</svg>
